<svg width="347" height="293" viewBox="0 0 347 293" fill="none" xmlns="http://www.w3.org/2000/svg">
<path d="M293.58 8.65C283.676 8.64602 273.973 11.4492 265.596 16.7346C257.22 22.0201 250.513 29.5713 246.253 38.5129C241.993 47.4545 240.355 57.4203 241.528 67.2551C242.701 77.09 246.637 86.391 252.88 94.08L254.12 95.56C254.12 95.56 290.62 142.48 293.58 142.56C296.54 142.64 333.13 95.43 333.13 95.43L334.42 93.88C340.623 86.1794 344.52 76.881 345.661 67.0592C346.803 57.2374 345.142 47.2931 340.871 38.3752C336.6 29.4574 329.892 21.9301 321.524 16.663C313.156 11.3959 303.468 8.60403 293.58 8.61V8.65ZM294.44 37.87C298.52 37.87 302.509 39.0799 305.901 41.3468C309.294 43.6136 311.938 46.8356 313.5 50.6052C315.061 54.3749 315.47 58.5229 314.674 62.5247C313.878 66.5265 311.913 70.2025 309.028 73.0876C306.143 75.9728 302.467 77.9376 298.465 78.7336C294.463 79.5296 290.315 79.1211 286.545 77.5596C282.776 75.9982 279.554 73.354 277.287 69.9614C275.02 66.5688 273.81 62.5802 273.81 58.5C273.809 55.7905 274.341 53.1072 275.378 50.6037C276.414 48.1001 277.934 45.8254 279.85 43.9095C281.765 41.9935 284.04 40.474 286.544 39.4377C289.047 38.4014 291.73 37.8687 294.44 37.87Z" fill="black"/>
<path d="M290.09 162.61C286.38 162.45 240.61 103.61 240.61 103.61L239.04 101.76C230.701 91.486 225.658 78.9337 224.572 65.7462C223.485 52.5587 226.405 39.3504 232.95 27.85C233.35 27.1542 233.469 26.3322 233.283 25.5517C233.097 24.7712 232.62 24.0911 231.95 23.65C207.585 8.17677 179.303 -0.00816384 150.44 0.0600002C67.85 0.0600002 0.900024 65.48 0.900024 146.16C0.900024 226.84 67.85 292.26 150.44 292.26C227.44 292.26 290.82 235.41 299.06 162.34C299.133 161.682 299 161.018 298.678 160.44C298.356 159.862 297.862 159.399 297.264 159.115C296.667 158.831 295.995 158.741 295.344 158.856C294.693 158.972 294.093 159.288 293.63 159.76C291.84 161.58 290.58 162.63 290.09 162.61ZM230.36 182.26V218.67C230.36 219.509 230.027 220.314 229.435 220.908C228.843 221.502 228.039 221.837 227.2 221.84H218.06C217.219 221.84 216.413 221.506 215.818 220.912C215.224 220.317 214.89 219.511 214.89 218.67V182.45C214.893 182.03 214.812 181.613 214.652 181.224C214.492 180.835 214.256 180.482 213.958 180.185C213.66 179.888 213.306 179.653 212.917 179.494C212.528 179.336 212.111 179.256 211.69 179.26L191 179.49L186.28 179.54C185.859 179.544 185.441 179.463 185.051 179.303C184.662 179.144 184.308 178.908 184.01 178.61L165.57 160.17C165.276 159.875 164.927 159.641 164.543 159.481C164.158 159.321 163.746 159.239 163.33 159.239C162.914 159.239 162.502 159.321 162.117 159.481C161.733 159.641 161.384 159.875 161.09 160.17L89.39 231.87C89.0964 232.165 88.7473 232.399 88.3629 232.559C87.9785 232.719 87.5663 232.801 87.15 232.801C86.7337 232.801 86.3215 232.719 85.9371 232.559C85.5527 232.399 85.2036 232.165 84.91 231.87L78.46 225.42C78.1649 225.126 77.9307 224.777 77.7709 224.393C77.6111 224.008 77.5289 223.596 77.5289 223.18C77.5289 222.764 77.6111 222.352 77.7709 221.967C77.9307 221.583 78.1649 221.234 78.46 220.94L150.16 149.24C150.751 148.644 151.083 147.839 151.083 147C151.083 146.161 150.751 145.356 150.16 144.76L120.02 114.62C119.726 114.325 119.377 114.091 118.993 113.931C118.609 113.771 118.196 113.689 117.78 113.689C117.364 113.689 116.951 113.771 116.567 113.931C116.183 114.091 115.834 114.325 115.54 114.62L56.69 173.45C56.3964 173.745 56.0473 173.979 55.6629 174.139C55.2785 174.299 54.8663 174.381 54.45 174.381C54.0337 174.381 53.6215 174.299 53.2371 174.139C52.8527 173.979 52.5037 173.745 52.21 173.45L45.76 167C45.4649 166.706 45.2307 166.357 45.0709 165.973C44.9111 165.588 44.8289 165.176 44.8289 164.76C44.8289 164.344 44.9111 163.932 45.0709 163.547C45.2307 163.163 45.4649 162.814 45.76 162.52L104.57 103.71C104.865 103.416 105.099 103.067 105.259 102.683C105.419 102.298 105.501 101.886 105.501 101.47C105.501 101.054 105.419 100.642 105.259 100.257C105.099 99.8727 104.865 99.5236 104.57 99.23L76.74 71.36C76.4449 71.0664 76.2108 70.7173 76.051 70.3329C75.8912 69.9485 75.8089 69.5363 75.8089 69.12C75.8089 68.7037 75.8912 68.2915 76.051 67.9071C76.2108 67.5227 76.4449 67.1736 76.74 66.88L83.19 60.43C83.4836 60.1349 83.8327 59.9007 84.2171 59.741C84.6015 59.5812 85.0137 59.4989 85.43 59.4989C85.8463 59.4989 86.2585 59.5812 86.6429 59.741C87.0273 59.9007 87.3764 60.1349 87.67 60.43L137.89 110.64C138.183 110.935 138.531 111.169 138.915 111.328C139.298 111.488 139.71 111.57 140.125 111.57C140.54 111.57 140.952 111.488 141.335 111.328C141.719 111.169 142.067 110.935 142.36 110.64L190.17 62.84C190.464 62.5449 190.813 62.3107 191.197 62.1509C191.581 61.9912 191.994 61.9089 192.41 61.9089C192.826 61.9089 193.239 61.9912 193.623 62.1509C194.007 62.3107 194.356 62.5449 194.65 62.84L201.1 69.26C201.395 69.5536 201.629 69.9027 201.789 70.2871C201.949 70.6715 202.031 71.0837 202.031 71.5C202.031 71.9163 201.949 72.3285 201.789 72.7129C201.629 73.0973 201.395 73.4464 201.1 73.74L153.3 121.55C153.005 121.843 152.771 122.191 152.612 122.575C152.452 122.958 152.37 123.37 152.37 123.785C152.37 124.2 152.452 124.612 152.612 124.995C152.771 125.379 153.005 125.727 153.3 126.02L190.3 163.02C190.599 163.319 190.954 163.556 191.346 163.715C191.738 163.875 192.157 163.955 192.58 163.95L250.3 163.31C250.716 163.306 251.129 163.384 251.515 163.54C251.902 163.695 252.253 163.926 252.55 164.217C252.848 164.509 253.084 164.856 253.247 165.239C253.41 165.622 253.496 166.034 253.5 166.45L253.6 175.58C253.605 175.996 253.528 176.409 253.374 176.795C253.219 177.181 252.99 177.532 252.699 177.83C252.408 178.127 252.062 178.364 251.679 178.527C251.297 178.69 250.886 178.776 250.47 178.78L233.47 178.97C233.049 178.978 232.633 179.069 232.247 179.24C231.861 179.41 231.514 179.655 231.224 179.962C230.934 180.268 230.709 180.629 230.56 181.024C230.412 181.418 230.344 181.839 230.36 182.26Z" fill="black"/>
</svg>
